<?xml version="1.0" encoding="utf-8"?>
<svg viewBox="184.677 216.673 360.317 85.74" xmlns="http://www.w3.org/2000/svg">
  <path d="M 184.6774930419922 300.44949609375 L 184.6774930419922 216.67349609375 L 203.28399304199218 216.67349609375 L 203.28399304199218 225.55599609375 L 195.5234930419922 225.55599609375 L 195.5234930419922 291.56699609375 L 203.28399304199218 291.56699609375 L 203.28399304199218 300.44949609375" style="fill: rgb(51, 51, 51); white-space: pre;"/>
  <path d="M 526.3877319335937 300.44949609375 L 526.3877319335937 291.56699609375 L 534.1482319335937 291.56699609375 L 534.1482319335937 225.55599609375 L 526.3877319335937 225.55599609375 L 526.3877319335937 216.67349609375 L 544.9942319335937 216.67349609375 L 544.9942319335937 300.44949609375" style="fill: rgb(51, 51, 51); white-space: pre;"/>
  <path d="M 502.51058935546877 286.51799609375 C 498.77058935546876 286.51799609375 495.5604226888021 285.86349609375003 492.8800893554687 284.55449609375 C 490.19975602213543 283.24549609375 488.15833935546874 281.42224609375 486.75583935546877 279.08474609375 C 485.3533393554688 276.74724609375 484.6520893554688 274.02016276041667 484.6520893554688 270.90349609375 C 484.6520893554688 270.6541627604167 484.6676726888021 270.40482942708337 484.69883935546875 270.15549609375 C 484.7300060221354 269.90616276041663 484.7455893554687 269.78149609375 484.7455893554687 269.78149609375 L 496.15258935546876 269.78149609375 L 496.15258935546876 270.43599609375 C 496.2149226888021 273.05399609375 496.9629226888021 274.86166276041666 498.39658935546873 275.85899609375 C 499.8302560221354 276.8563294270833 501.3262560221354 277.35499609375 502.88458935546873 277.35499609375 C 504.38058935546877 277.35499609375 505.8454226888021 276.96541276041665 507.2790893554687 276.18624609375 C 508.7127560221354 275.4070794270834 509.42958935546875 274.02016276041667 509.42958935546875 272.02549609375 C 509.42958935546875 270.28016276041666 508.8530060221354 268.95557942708336 507.6998393554687 268.05174609375 C 506.54667268880206 267.14791276041666 505.0506726888021 266.4310794270833 503.2118393554687 265.90124609375 C 501.3730060221354 265.37141276041666 499.44067268880207 264.82599609375 497.41483935546876 264.26499609375 C 495.38900602213545 263.70399609375 493.4566726888021 262.90924609374997 491.61783935546873 261.88074609375 C 489.77900602213543 260.85224609375 488.2830060221354 259.41857942708333 487.12983935546873 257.57974609375 C 485.97667268880207 255.74091276041665 485.40008935546877 253.23199609375 485.40008935546877 250.05299609375 C 485.40008935546877 246.68699609375 486.1792560221354 243.89757942708334 487.73758935546874 241.68474609375 C 489.2959226888021 239.47191276041667 491.41525602213545 237.82007942708333 494.09558935546875 236.72924609375 C 496.7759226888021 235.63841276041666 499.7367560221354 235.09299609375 502.97808935546874 235.09299609375 C 506.0947560221354 235.09299609375 508.91533935546875 235.62282942708333 511.43983935546873 236.68249609375 C 513.9643393554687 237.74216276041668 515.9590060221354 239.26932942708333 517.4238393554688 241.26399609375 C 518.8886726888021 243.25866276041668 519.6210893554687 245.65849609375002 519.6210893554687 248.46349609375 C 519.6210893554687 248.96216276041665 519.6055060221354 249.42966276041665 519.5743393554687 249.86599609375 C 519.5431726888021 250.30232942708335 519.5275893554688 250.5516627604167 519.5275893554688 250.61399609375002 L 508.1205893554687 250.61399609375002 L 508.1205893554687 250.42699609375 C 508.0582560221354 248.24532942708333 507.5440060221354 246.67141276041667 506.57783935546877 245.70524609375 C 505.6116726888021 244.73907942708334 504.28708935546877 244.25599609375 502.6040893554688 244.25599609375 C 501.48208935546876 244.25599609375 500.48475602213546 244.45857942708335 499.61208935546875 244.86374609375 C 498.73942268880205 245.26891276041667 498.0537560221354 245.82991276041668 497.55508935546874 246.54674609375002 C 497.05642268880206 247.26357942708333 496.80708935546875 248.12066276041668 496.80708935546875 249.11799609375 C 496.80708935546875 250.67632942708335 497.3836726888021 251.8606627604167 498.53683935546877 252.67099609375 C 499.69000602213544 253.48132942708332 501.1860060221354 254.13582942708334 503.02483935546877 254.63449609375 C 504.86367268880207 255.13316276041667 506.79600602213543 255.64741276041667 508.82183935546874 256.17724609375 C 510.84767268880205 256.70707942708333 512.7800060221354 257.48624609375 514.6188393554687 258.51474609375 C 516.4576726888021 259.54324609375 517.9536726888022 261.0080794270833 519.1068393554688 262.90924609374997 C 520.2600060221354 264.8104127604167 520.8365893554687 267.38166276041665 520.8365893554687 270.62299609375 C 520.8365893554687 274.61232942708335 520.0418393554687 277.7601627604167 518.4523393554688 280.06649609375 C 516.8628393554687 282.37282942708333 514.681172688802 284.0246627604167 511.90733935546876 285.02199609375 C 509.1335060221354 286.01932942708333 506.0012560221354 286.51799609375 502.51058935546877 286.51799609375" style="fill: rgb(51, 51, 51); white-space: pre;"/>
  <path d="M 453.762 255.476 L 466.852 255.476 C 466.852 251.923 466.369 249.165 465.403 247.201 C 464.437 245.238 462.925 244.256 460.868 244.256 C 458.5 244.256 456.77 245.238 455.679 247.201 C 454.588 249.165 453.949 251.923 453.762 255.476 M 461.242 286.518 C 454.947 286.518 450.163 284.445 446.89 280.3 C 443.618 276.155 441.981 269.657 441.981 260.805 C 441.981 251.954 443.618 245.456 446.89 241.311 C 450.163 237.166 454.822 235.093 460.868 235.093 C 466.79 235.093 471.231 237.166 474.192 241.311 C 477.153 245.456 478.633 251.954 478.633 260.805 L 478.633 263.61 L 453.669 263.61 C 453.731 267.974 454.323 271.355 455.445 273.755 C 456.567 276.155 458.5 277.355 461.242 277.355 C 463.175 277.355 464.702 276.529 465.824 274.877 C 466.946 273.225 467.507 270.935 467.507 268.005 L 478.633 268.005 C 478.633 274.301 476.982 278.96 473.678 281.983 C 470.374 285.006 466.229 286.518 461.242 286.518" style="fill: rgb(51, 51, 51); white-space: pre;"/>
  <path d="M 397.6568127441406 285.39599609375 L 397.6568127441406 236.21499609375002 L 407.00681274414063 236.21499609375002 L 408.12881274414065 242.29249609375 L 408.6898127441406 242.29249609375 C 409.9364794108073 240.36016276041667 411.58831274414064 238.67716276041665 413.6453127441406 237.24349609375 C 415.7023127441406 235.80982942708334 418.19564607747395 235.09299609375 421.1253127441406 235.09299609375 C 424.927646077474 235.09299609375 428.059896077474 236.27732942708334 430.5220627441406 238.64599609375 C 432.9842294108073 241.01466276041666 434.21531274414065 245.09749609375 434.21531274414065 250.89449609375 L 434.21531274414065 285.39599609375 L 422.9953127441406 285.39599609375 L 422.9953127441406 253.97999609375 C 422.9953127441406 250.80099609375 422.4187294108073 248.55699609375 421.26556274414065 247.24799609375 C 420.112396077474 245.93899609375 418.53847941080727 245.28449609375 416.5438127441406 245.28449609375 C 414.36214607747394 245.28449609375 412.53889607747396 246.23507942708332 411.07406274414063 248.13624609375 C 409.6092294108073 250.03741276041666 408.87681274414064 252.3593294270833 408.87681274414064 255.10199609375 L 408.87681274414064 285.39599609375" style="fill: rgb(51, 51, 51); white-space: pre;"/>
  <path d="M 369.414 277.074 C 372.344 277.074 374.401 275.843 375.585 273.381 C 376.77 270.919 377.362 267.319 377.362 262.582 L 377.362 259.029 C 377.362 254.292 376.77 250.692 375.585 248.23 C 374.401 245.768 372.344 244.536 369.414 244.536 C 366.547 244.536 364.505 245.768 363.29 248.23 C 362.074 250.692 361.467 254.292 361.467 259.029 L 361.467 262.582 C 361.467 267.319 362.074 270.919 363.29 273.381 C 364.505 275.843 366.547 277.074 369.414 277.074 M 369.414 286.518 C 362.869 286.518 357.96 284.445 354.688 280.3 C 351.415 276.155 349.779 269.657 349.779 260.805 C 349.779 251.954 351.415 245.456 354.688 241.311 C 357.96 237.166 362.869 235.093 369.414 235.093 C 375.959 235.093 380.868 237.166 384.14 241.311 C 387.413 245.456 389.049 251.954 389.049 260.805 C 389.049 269.657 387.413 276.155 384.14 280.3 C 380.868 284.445 375.959 286.518 369.414 286.518" style="fill: rgb(51, 51, 51); white-space: pre;"/>
  <path d="M 329.659357421875 228.54799609375 L 329.659357421875 217.79549609375 L 340.972857421875 217.79549609375 L 340.972857421875 228.54799609375" style="fill: rgb(51, 51, 51); white-space: pre;"/>
  <path d="M 329.565857421875 302.41299609375 C 328.1945240885417 302.41299609375 326.714107421875 302.28832942708334 325.124607421875 302.03899609375003 C 323.535107421875 301.78966276041666 322.2416907552083 301.54032942708335 321.244357421875 301.29099609375 L 321.244357421875 292.96949609375 L 325.358357421875 292.96949609375 C 328.28802408854165 292.96949609375 329.752857421875 291.47349609375004 329.752857421875 288.48149609375 L 329.752857421875 236.21499609375002 L 340.972857421875 236.21499609375002 L 340.972857421875 289.22949609375 C 340.972857421875 291.4111627604167 340.645607421875 293.5149127604167 339.991107421875 295.54074609375 C 339.336607421875 297.5665794270833 338.1834407552083 299.21841276041664 336.531607421875 300.49624609375 C 334.8797740885417 301.77407942708334 332.55785742187504 302.41299609375 329.565857421875 302.41299609375" style="fill: rgb(51, 51, 51); white-space: pre;"/>
  <path d="M 299.61759765625 285.39599609375 L 299.61759765625 236.21499609375002 L 308.96759765625 236.21499609375002 L 310.27659765625 243.41449609375002 L 310.83759765625 243.41449609375002 C 311.5232643229167 241.35749609375 312.48943098958335 239.45632942708332 313.73609765625 237.71099609375 C 314.98276432291664 235.96566276041668 316.85276432291664 235.09299609375 319.34609765625 235.09299609375 C 320.77976432291666 235.09299609375 321.91734765625 235.21766276041666 322.75884765625 235.46699609375 C 323.60034765625 235.71632942708334 324.02109765625 235.84099609375 324.02109765625 235.84099609375 L 324.02109765625 246.68699609375 L 320.00059765625 246.68699609375 C 318.37993098958333 246.68699609375 316.86834765624997 247.02982942708334 315.46584765625 247.71549609375 C 314.06334765625 248.40116276041667 312.94134765625 249.55432942708333 312.09984765625 251.17499609375 C 311.25834765625 252.79566276041666 310.83759765625 255.07082942708334 310.83759765625 258.00049609375003 L 310.83759765625 285.39599609375" style="fill: rgb(51, 51, 51); white-space: pre;"/>
  <path d="M 266.671 255.476 L 279.761 255.476 C 279.761 251.923 279.278 249.165 278.312 247.201 C 277.346 245.238 275.834 244.256 273.777 244.256 C 271.408 244.256 269.679 245.238 268.588 247.201 C 267.497 249.165 266.858 251.923 266.671 255.476 M 274.151 286.518 C 267.855 286.518 263.071 284.445 259.799 280.3 C 256.526 276.155 254.89 269.657 254.89 260.805 C 254.89 251.954 256.526 245.456 259.799 241.311 C 263.071 237.166 267.731 235.093 273.777 235.093 C 279.699 235.093 284.14 237.166 287.101 241.311 C 290.062 245.456 291.542 251.954 291.542 260.805 L 291.542 263.61 L 266.577 263.61 C 266.64 267.974 267.232 271.355 268.354 273.755 C 269.476 276.155 271.408 277.355 274.151 277.355 C 276.083 277.355 277.61 276.529 278.732 274.877 C 279.854 273.225 280.415 270.935 280.415 268.005 L 291.542 268.005 C 291.542 274.301 289.89 278.96 286.586 281.983 C 283.283 285.006 279.138 286.518 274.151 286.518" style="fill: rgb(51, 51, 51); white-space: pre;"/>
  <path d="M 229.265 276.326 C 232.008 276.326 233.94 275.142 235.062 272.773 C 236.184 270.405 236.745 267.008 236.745 262.582 L 236.745 259.029 C 236.745 254.603 236.184 251.206 235.062 248.837 C 233.94 246.469 232.008 245.284 229.265 245.284 C 226.585 245.284 224.668 246.5 223.515 248.931 C 222.362 251.362 221.785 254.79 221.785 259.216 L 221.785 262.582 C 221.785 267.008 222.362 270.405 223.515 272.773 C 224.668 275.142 226.585 276.326 229.265 276.326 M 232.631 286.518 C 230.325 286.518 228.206 285.91 226.273 284.695 C 224.341 283.479 222.751 281.687 221.505 279.318 L 221.037 279.318 L 219.915 285.396 L 210.565 285.396 L 210.565 217.795 L 221.785 217.795 L 221.785 241.264 L 222.253 241.264 C 223.125 239.269 224.544 237.742 226.507 236.682 C 228.471 235.623 230.699 235.093 233.192 235.093 C 236.122 235.093 238.724 235.981 241 237.758 C 243.275 239.534 245.082 242.308 246.423 246.079 C 247.763 249.85 248.433 254.728 248.433 260.712 C 248.433 269.626 247.015 276.155 244.179 280.3 C 241.342 284.445 237.493 286.518 232.631 286.518" style="fill: rgb(51, 51, 51); white-space: pre;"/>
</svg>
