<?xml version="1.0" encoding="utf-8"?>
<svg viewBox="633.544 541.852 206.772 206.772" style="isolation:isolate" xmlns="http://www.w3.org/2000/svg">
  <defs>
    <clipPath id="clip-0">
      <title>WaveMasked</title>
      <rect x="714.234" y="589.734" width="45.224" height="110.229" style=""/>
    </clipPath>
  </defs>
  <g>
    <rect x="633.544" y="541.852" width="206.772" height="206.772" transform="matrix(1,0,0,1,0,0)" fill="rgb(255,204,51)"/>
    <g>
      <path d=" M 657.925 645.238 C 657.925 601.634 693.326 566.233 736.93 566.233 C 780.534 566.233 815.935 601.634 815.935 645.238 C 815.935 688.842 780.534 724.242 736.93 724.242 C 693.326 724.242 657.925 688.842 657.925 645.238 Z  M 665.416 645.238 C 665.416 605.768 697.46 573.724 736.93 573.724 C 776.399 573.724 808.444 605.768 808.444 645.238 C 808.444 684.707 776.399 716.752 736.93 716.752 C 697.46 716.752 665.416 684.707 665.416 645.238 Z " fill-rule="evenodd" fill="rgb(0,0,0)"/>
    </g>
  </g>
  <g transform="matrix(1.3764569759368896, 0, 0, 1.3764569759368896, -342.45141601562494, -122.1195297241211)" style="">
    <path d="M 810.235 519.672 L 810.235 586.985 L 810.405 595.505 L 799.33 595.505 L 799.33 519.672 L 810.235 519.672 Z M 758.259 595.505 L 758.259 528.192 L 758.089 519.672 L 769.195 519.672 L 769.195 595.505 L 758.259 595.505 Z" style=""/>
    <g style="clip-path: url('#clip-0');" transform="matrix(0.72798, 0, 0, 0.72798, 247.853043, 87.48761)">
      <title>Wave</title>
      <path d="M 830.226 672.743 C 833.223 674.988 836.101 675.772 838.859 675.091 L 838.859 675.087 C 838.862 675.088 838.864 675.088 838.867 675.089 C 838.869 675.088 838.872 675.088 838.874 675.087 L 838.874 675.091 C 841.632 675.772 844.51 674.988 847.507 672.743 C 849.583 671.187 851.065 662.136 851.954 645.589 L 853.827 620.307 C 854.139 615.266 855.388 610.116 857.573 604.857 C 859.909 598.974 867.322 596.243 879.811 596.664 L 879.811 615.391 C 877.044 614.698 874.157 615.479 871.15 617.732 C 869.074 619.288 867.513 628.574 866.468 645.589 L 864.829 670.168 C 864.517 675.209 863.269 680.359 861.084 685.618 C 858.749 691.498 851.343 694.229 838.867 693.811 C 826.39 694.229 818.984 691.498 816.649 685.618 C 814.464 680.359 813.216 675.209 812.904 670.168 L 811.265 645.589 C 810.22 628.574 808.659 619.288 806.583 617.732 C 803.576 615.479 800.689 614.698 797.922 615.391 L 797.922 596.664 C 810.411 596.243 817.824 598.974 820.16 604.857 C 822.345 610.116 823.594 615.266 823.906 620.307 L 825.779 645.589 C 826.668 662.136 828.15 671.187 830.226 672.743 Z" style=""/>
      <path d="M 912.115 672.743 C 915.112 674.988 917.99 675.772 920.748 675.091 L 920.748 675.087 C 920.751 675.088 920.753 675.088 920.756 675.089 C 920.758 675.088 920.761 675.088 920.763 675.087 L 920.763 675.091 C 923.521 675.772 926.399 674.988 929.396 672.743 C 931.472 671.187 932.954 662.136 933.843 645.589 L 935.716 620.307 C 936.028 615.266 937.277 610.116 939.462 604.857 C 941.798 598.974 949.211 596.243 961.7 596.664 L 961.7 615.391 C 958.933 614.698 956.046 615.479 953.039 617.732 C 950.963 619.288 949.402 628.574 948.357 645.589 L 946.718 670.168 C 946.406 675.209 945.158 680.359 942.973 685.618 C 940.638 691.498 933.232 694.229 920.756 693.811 C 908.279 694.229 900.873 691.498 898.538 685.618 C 896.353 680.359 895.105 675.209 894.793 670.168 L 893.154 645.589 C 892.109 628.574 890.548 619.288 888.472 617.732 C 885.465 615.479 882.578 614.698 879.811 615.391 L 879.811 596.664 C 892.3 596.243 899.713 598.974 902.049 604.857 C 904.234 610.116 905.483 615.266 905.795 620.307 L 907.668 645.589 C 908.557 662.136 910.039 671.187 912.115 672.743 Z" style=""/>
      <path d="M 994.004 672.743 C 997.001 674.988 999.879 675.772 1002.637 675.091 L 1002.637 675.087 C 1002.64 675.088 1002.642 675.088 1002.645 675.089 C 1002.647 675.088 1002.65 675.088 1002.652 675.087 L 1002.652 675.091 C 1005.41 675.772 1008.288 674.988 1011.285 672.743 C 1013.361 671.187 1014.843 662.136 1015.732 645.589 L 1017.605 620.307 C 1017.917 615.266 1019.166 610.116 1021.351 604.857 C 1023.687 598.974 1031.1 596.243 1043.589 596.664 L 1043.589 615.391 C 1040.822 614.698 1037.935 615.479 1034.928 617.732 C 1032.852 619.288 1031.291 628.574 1030.246 645.589 L 1028.607 670.168 C 1028.295 675.209 1027.047 680.359 1024.862 685.618 C 1022.527 691.498 1015.121 694.229 1002.645 693.811 C 990.168 694.229 982.762 691.498 980.427 685.618 C 978.242 680.359 976.994 675.209 976.682 670.168 L 975.043 645.589 C 973.998 628.574 972.437 619.288 970.361 617.732 C 967.354 615.479 964.467 614.698 961.7 615.391 L 961.7 596.664 C 974.189 596.243 981.602 598.974 983.938 604.857 C 986.123 610.116 987.372 615.266 987.684 620.307 L 989.557 645.589 C 990.446 662.136 991.928 671.187 994.004 672.743 Z" style=""/>
      <path d="M 830.226 672.743 C 833.223 674.988 836.101 675.772 838.859 675.091 L 838.859 675.087 C 838.862 675.088 838.864 675.088 838.867 675.089 C 838.869 675.088 838.872 675.088 838.874 675.087 L 838.874 675.091 C 841.632 675.772 844.51 674.988 847.507 672.743 C 849.583 671.187 851.065 662.136 851.954 645.589 L 853.827 620.307 C 854.139 615.266 855.388 610.116 857.573 604.857 C 859.909 598.974 867.322 596.243 879.811 596.664 L 879.811 615.391 C 877.044 614.698 874.157 615.479 871.15 617.732 C 869.074 619.288 867.513 628.574 866.468 645.589 L 864.829 670.168 C 864.517 675.209 863.269 680.359 861.084 685.618 C 858.749 691.498 851.343 694.229 838.867 693.811 C 826.39 694.229 818.984 691.498 816.649 685.618 C 814.464 680.359 813.216 675.209 812.904 670.168 L 811.265 645.589 C 810.22 628.574 808.659 619.288 806.583 617.732 C 803.576 615.479 800.689 614.698 797.922 615.391 C 795.155 614.698 792.268 615.479 789.261 617.732 C 787.185 619.288 785.624 628.574 784.579 645.589 L 782.94 670.168 C 782.628 675.209 781.38 680.359 779.195 685.618 C 776.86 691.498 769.454 694.229 756.978 693.811 C 744.501 694.229 737.095 691.498 734.76 685.618 C 732.575 680.359 731.327 675.209 731.015 670.168 L 729.376 645.589 C 728.331 628.574 726.77 619.288 724.694 617.732 C 721.687 615.479 718.8 614.698 716.033 615.391 L 716.033 596.664 C 728.522 596.243 735.935 598.974 738.271 604.857 C 740.456 610.116 741.705 615.266 742.017 620.307 L 743.89 645.589 C 744.779 662.136 746.261 671.187 748.337 672.743 C 751.334 674.988 754.212 675.772 756.97 675.091 L 756.97 675.087 C 756.973 675.088 756.975 675.088 756.978 675.089 C 756.98 675.088 756.983 675.088 756.985 675.087 L 756.985 675.091 C 759.743 675.772 762.621 674.988 765.618 672.743 C 767.694 671.187 769.176 662.136 770.065 645.589 L 771.938 620.307 C 772.25 615.266 773.499 610.116 775.684 604.857 C 778.02 598.974 785.433 596.243 797.922 596.664 C 810.411 596.243 817.824 598.974 820.16 604.857 C 822.345 610.116 823.594 615.266 823.906 620.307 L 825.779 645.589 C 826.668 662.136 828.15 671.187 830.226 672.743 Z" style="">
        <animateMotion path="M 0 0 L -82.198 0" calcMode="linear" begin="0s" dur="1.03s" fill="freeze" repeatCount="indefinite"/>
      </path>
    </g>
  </g>
</svg>