<?xml version="1.0" encoding="utf-8"?>
<svg viewBox="0 4.96 531.916 70.72" xmlns="http://www.w3.org/2000/svg">
  <path style="fill-rule: nonzero; fill-opacity: 1; stroke: none;" d="M 0 74.56 L 0 25.84 L 12.88 25.84 L 14.24 34.72 C 15.52 32.64 17.04 30.88 18.72 29.44 C 20.48 27.92 22.48 26.8 24.8 25.92 C 27.04 25.12 29.52 24.72 32.16 24.72 L 32.16 40.08 L 27.36 40.08 C 25.44 40.08 23.68 40.24 22.08 40.64 C 20.48 41.12 19.12 41.76 18 42.72 C 16.88 43.76 16 45.04 15.44 46.64 C 14.8 48.32 14.48 50.32 14.48 52.8 L 14.48 74.56 L 0 74.56 Z" id="path5"/>
  <path style="fill-rule: nonzero; fill-opacity: 1; stroke: none;" d="M 522.716 74.56 C 519.276 74.56 516.156 74 513.436 72.88 C 510.796 71.76 508.636 69.84 507.196 67.28 C 505.676 64.72 504.956 61.2 504.956 56.8 L 504.956 37.92 L 496.636 37.92 L 496.636 25.84 L 504.956 25.84 L 506.556 12.16 L 519.436 12.16 L 519.436 25.84 L 531.916 25.84 L 531.916 37.92 L 519.436 37.92 L 519.436 56.96 C 519.436 58.88 519.916 60.24 520.796 61.04 C 521.596 61.84 523.116 62.24 525.276 62.24 L 531.916 62.24 L 531.916 74.56 L 522.716 74.56 Z" id="path7"/>
  <path style="fill-rule: nonzero; fill-opacity: 1; stroke: none;" d="M 471.277 75.68 C 466.237 75.68 461.837 74.64 458.077 72.56 C 454.237 70.48 451.277 67.52 449.117 63.76 C 446.957 60 445.837 55.68 445.837 50.8 C 445.837 45.76 446.957 41.28 449.037 37.36 C 451.197 33.44 454.157 30.32 457.917 28.08 C 461.757 25.84 466.157 24.72 471.197 24.72 C 476.077 24.72 480.397 25.76 483.997 27.84 C 487.677 30 490.557 32.88 492.636 36.56 C 494.796 40.16 495.836 44.4 495.836 49.12 C 495.836 49.76 495.836 50.48 495.756 51.28 C 495.756 52.08 495.676 52.96 495.516 53.76 L 456.237 53.76 L 456.237 45.36 L 481.037 45.36 C 480.877 42.64 479.917 40.48 478.077 38.88 C 476.237 37.2 473.997 36.4 471.277 36.4 C 469.197 36.4 467.357 36.88 465.677 37.84 C 463.997 38.8 462.637 40.24 461.677 42.16 C 460.637 44.08 460.157 46.56 460.157 49.52 L 460.157 52.4 C 460.157 54.64 460.637 56.64 461.437 58.4 C 462.317 60.16 463.597 61.52 465.277 62.48 C 466.877 63.44 468.797 63.92 471.117 63.92 C 473.197 63.92 474.957 63.44 476.317 62.64 C 477.757 61.76 478.797 60.64 479.597 59.28 L 494.396 59.28 C 493.436 62.4 491.916 65.12 489.757 67.6 C 487.517 70.08 484.877 72.08 481.677 73.52 C 478.557 74.96 475.037 75.68 471.277 75.68 Z" id="path9"/>
  <path style="fill-rule: nonzero; fill-opacity: 1; stroke: none;" d="M 432.077 74.56 L 411.997 47.84 L 429.837 25.84 L 446.957 25.84 L 422.877 54.08 L 422.877 42.48 L 449.997 74.56 L 432.077 74.56 Z M 399.597 74.56 L 399.597 4.96 L 414.077 4.96 L 414.077 74.56 L 399.597 74.56 Z" id="path11"/>
  <path style="fill-rule: nonzero; fill-opacity: 1; stroke: none;" d="M 370.077 75.68 C 365.037 75.68 360.637 74.64 356.797 72.4 C 352.958 70.24 349.918 67.2 347.758 63.44 C 345.598 59.6 344.558 55.28 344.558 50.4 C 344.558 45.36 345.598 40.96 347.758 37.12 C 349.918 33.28 352.958 30.24 356.797 28 C 360.637 25.84 365.037 24.72 370.077 24.72 C 376.397 24.72 381.757 26.4 386.157 29.68 C 390.477 33.04 393.277 37.76 394.397 43.76 L 379.037 43.76 C 378.477 41.68 377.357 40.08 375.757 38.88 C 374.157 37.76 372.237 37.12 369.997 37.12 C 367.837 37.12 365.997 37.68 364.397 38.72 C 362.797 39.84 361.597 41.36 360.717 43.28 C 359.757 45.28 359.357 47.52 359.357 50.16 C 359.357 52.16 359.597 54 360.077 55.6 C 360.637 57.2 361.357 58.56 362.317 59.76 C 363.197 60.88 364.317 61.84 365.597 62.4 C 366.877 63.04 368.317 63.36 369.997 63.36 C 371.517 63.36 372.877 63.04 374.077 62.56 C 375.277 62.08 376.317 61.28 377.197 60.32 C 377.997 59.36 378.637 58.16 379.037 56.8 L 394.397 56.8 C 393.277 62.56 390.477 67.2 386.077 70.56 C 381.677 74 376.397 75.68 370.077 75.68 Z" id="path13"/>
  <path style="fill-rule: nonzero; fill-opacity: 1; stroke: none;" d="M 315.998 63.12 C 317.918 63.12 319.678 62.64 321.118 61.68 C 322.638 60.72 323.838 59.28 324.798 57.36 C 325.678 55.44 326.158 53.04 326.158 50.16 C 326.158 47.36 325.678 44.96 324.798 43.04 C 323.838 41.12 322.718 39.68 321.198 38.72 C 319.758 37.76 317.998 37.28 316.078 37.28 C 314.158 37.28 312.398 37.76 310.878 38.72 C 309.438 39.68 308.158 41.12 307.278 43.04 C 306.398 44.96 305.918 47.36 305.918 50.16 C 305.918 53.04 306.398 55.44 307.278 57.36 C 308.158 59.28 309.438 60.72 310.878 61.68 C 312.398 62.64 314.158 63.12 315.998 63.12 Z M 315.998 75.68 C 311.278 75.68 307.038 74.64 303.358 72.4 C 299.598 70.24 296.638 67.2 294.478 63.36 C 292.238 59.52 291.198 55.2 291.198 50.32 C 291.198 45.28 292.238 40.8 294.478 37.04 C 296.638 33.2 299.598 30.16 303.358 28 C 307.118 25.76 311.358 24.72 315.998 24.72 C 320.718 24.72 325.038 25.76 328.718 28 C 332.478 30.16 335.438 33.2 337.598 37.04 C 339.838 40.8 340.878 45.2 340.878 50.16 C 340.878 55.12 339.838 59.52 337.598 63.36 C 335.438 67.2 332.478 70.24 328.718 72.4 C 325.038 74.64 320.718 75.68 315.998 75.68 Z" id="path15"/>
  <path style="fill-rule: nonzero; fill-opacity: 1; stroke: none;" d="M 258.558 74.56 L 258.558 25.84 L 271.358 25.84 L 272.718 34.72 C 273.998 32.64 275.518 30.88 277.278 29.44 C 278.958 27.92 281.038 26.8 283.278 25.92 C 285.598 25.12 288.078 24.72 290.718 24.72 L 290.718 40.08 L 285.838 40.08 C 283.918 40.08 282.158 40.24 280.558 40.64 C 279.038 41.12 277.678 41.76 276.558 42.72 C 275.438 43.76 274.558 45.04 273.918 46.64 C 273.278 48.32 273.038 50.32 273.038 52.8 L 273.038 74.56 L 258.558 74.56 Z" id="path17"/>
  <path style="fill-rule: nonzero; fill-opacity: 1; stroke: none;" d="M 229.358 75.68 C 224.318 75.68 219.919 74.64 216.159 72.56 C 212.319 70.48 209.359 67.52 207.199 63.76 C 205.039 60 203.919 55.68 203.919 50.8 C 203.919 45.76 205.039 41.28 207.119 37.36 C 209.279 33.44 212.239 30.32 215.999 28.08 C 219.839 25.84 224.238 24.72 229.278 24.72 C 234.158 24.72 238.478 25.76 242.078 27.84 C 245.758 30 248.638 32.88 250.718 36.56 C 252.878 40.16 253.918 44.4 253.918 49.12 C 253.918 49.76 253.918 50.48 253.838 51.28 C 253.838 52.08 253.758 52.96 253.598 53.76 L 214.319 53.76 L 214.319 45.36 L 239.118 45.36 C 238.958 42.64 237.998 40.48 236.158 38.88 C 234.318 37.2 232.078 36.4 229.358 36.4 C 227.278 36.4 225.438 36.88 223.758 37.84 C 222.078 38.8 220.719 40.24 219.759 42.16 C 218.719 44.08 218.239 46.56 218.239 49.52 L 218.239 52.4 C 218.239 54.64 218.719 56.64 219.519 58.4 C 220.399 60.16 221.678 61.52 223.358 62.48 C 224.958 63.44 226.878 63.92 229.198 63.92 C 231.278 63.92 233.038 63.44 234.398 62.64 C 235.838 61.76 236.878 60.64 237.678 59.28 L 252.478 59.28 C 251.518 62.4 249.998 65.12 247.838 67.6 C 245.598 70.08 242.958 72.08 239.758 73.52 C 236.638 74.96 233.118 75.68 229.358 75.68 Z" id="path19"/>
  <path style="fill-rule: nonzero; fill-opacity: 1; stroke: none;" d="M 173.439 63.04 C 175.759 63.04 177.839 62.48 179.679 61.36 C 181.519 60.32 182.959 58.8 183.999 56.88 C 185.039 55.04 185.519 52.8 185.519 50.32 C 185.519 47.76 185.039 45.52 183.999 43.6 C 182.959 41.6 181.519 40.08 179.679 38.96 C 177.839 37.92 175.759 37.36 173.439 37.36 C 171.039 37.36 168.959 37.92 167.119 39.04 C 165.279 40.16 163.839 41.68 162.799 43.6 C 161.759 45.44 161.279 47.68 161.279 50.32 C 161.279 52.72 161.759 54.96 162.799 56.88 C 163.839 58.88 165.279 60.4 167.119 61.44 C 168.959 62.48 171.039 63.04 173.439 63.04 Z M 177.039 75.68 C 174.639 75.68 172.479 75.44 170.559 74.8 C 168.719 74.24 167.039 73.44 165.599 72.4 C 164.079 71.28 162.879 70.08 161.839 68.72 L 160.239 74.56 L 147.359 74.56 L 147.359 4.96 L 161.839 4.96 L 161.839 32.24 C 163.359 30 165.359 28.24 167.839 26.8 C 170.319 25.44 173.279 24.72 176.879 24.72 C 181.359 24.72 185.359 25.84 188.879 28 C 192.319 30.24 195.119 33.28 197.199 37.12 C 199.279 40.96 200.319 45.36 200.319 50.32 C 200.319 55.12 199.279 59.44 197.199 63.36 C 195.119 67.2 192.399 70.24 188.879 72.4 C 185.439 74.64 181.439 75.68 177.039 75.68 Z" id="path21"/>
  <path style="fill-rule: nonzero; fill-opacity: 1; stroke: none;" d="M 115.439 63.04 C 117.679 63.04 119.759 62.48 121.599 61.36 C 123.439 60.32 124.879 58.8 125.919 56.88 C 126.959 55.04 127.439 52.8 127.439 50.32 C 127.439 47.76 126.959 45.52 125.919 43.6 C 124.879 41.6 123.439 40.08 121.599 38.96 C 119.759 37.92 117.679 37.36 115.439 37.36 C 113.039 37.36 110.879 37.92 109.039 39.04 C 107.199 40.16 105.839 41.68 104.799 43.6 C 103.759 45.44 103.199 47.68 103.199 50.32 C 103.199 52.72 103.759 54.96 104.799 56.88 C 105.839 58.88 107.199 60.4 109.039 61.44 C 110.879 62.48 113.039 63.04 115.439 63.04 Z M 118.959 75.68 C 116.559 75.68 114.479 75.44 112.559 74.8 C 110.639 74.24 108.959 73.44 107.519 72.4 C 106.079 71.28 104.799 70.08 103.839 68.72 L 102.159 74.56 L 89.279 74.56 L 89.279 4.96 L 103.839 4.96 L 103.839 32.24 C 105.359 30 107.359 28.24 109.759 26.8 C 112.239 25.44 115.279 24.72 118.879 24.72 C 123.359 24.72 127.279 25.84 130.799 28 C 134.319 30.24 137.119 33.28 139.199 37.12 C 141.199 40.96 142.239 45.36 142.239 50.32 C 142.239 55.12 141.199 59.44 139.199 63.36 C 137.119 67.2 134.319 70.24 130.879 72.4 C 127.359 74.64 123.439 75.68 118.959 75.68 Z" id="path23"/>
  <path style="fill-rule: nonzero; fill-opacity: 1; stroke: none;" d="M 52.88 75.68 C 48.88 75.68 45.44 74.88 42.64 73.2 C 39.84 71.52 37.68 69.04 36.24 65.76 C 34.8 62.56 34.08 58.56 34.08 53.84 L 34.08 25.84 L 48.56 25.84 L 48.56 52.4 C 48.56 56 49.28 58.8 50.8 60.64 C 52.24 62.56 54.64 63.52 57.92 63.52 C 59.92 63.52 61.68 63.04 63.28 62.16 C 64.88 61.28 66.08 59.92 66.96 58.24 C 67.84 56.48 68.24 54.32 68.24 51.84 L 68.24 25.84 L 82.8 25.84 L 82.8 74.56 L 70.08 74.56 L 68.96 66.8 C 67.52 69.44 65.44 71.6 62.8 73.2 C 60.08 74.88 56.8 75.68 52.88 75.68 Z" id="path25"/>
</svg>