<?xml version="1.0" encoding="UTF-8" standalone="no"?>
<svg xmlns="http://www.w3.org/2000/svg" xmlns:xlink="http://www.w3.org/1999/xlink" style="isolation:isolate" viewBox="429.989 1029.905 832.022 122.095" width="832.022pt" height="122.095pt">
  <g>
    <path d=" M 1228.538 1091.364 L 1226.343 1061.732 Q 1225.794 1052.869 1221.953 1043.623 Q 1217.846 1033.28 1195.888 1034.02 L 1195.888 1029.905 L 1177.779 1029.905 L 1178.053 1043.623 L 1178.053 1152 L 1195.888 1152 L 1195.888 1055.97 Q 1200.753 1054.752 1206.039 1058.714 Q 1209.689 1061.449 1211.527 1091.364 L 1213.447 1120.173 Q 1213.996 1129.036 1217.837 1138.281 Q 1221.945 1148.624 1243.903 1147.884 L 1243.903 1152 L 1262.011 1152 L 1261.737 1138.281 L 1261.737 1029.905 L 1243.903 1029.905 L 1243.903 1125.935 Q 1239.038 1127.153 1233.751 1123.191 Q 1230.101 1120.456 1228.538 1091.364 Z " fill="rgb(0,0,0)"/>
    <path d=" M 429.989 1137.719 L 429.989 1071.137 L 447.56 1071.137 L 449.408 1083.29 C 451.17 1080.472 453.239 1078.05 455.617 1076.024 C 457.996 1073.999 460.748 1072.413 463.875 1071.268 C 467.001 1070.123 470.369 1069.55 473.981 1069.55 L 473.981 1090.556 L 467.376 1090.556 C 464.734 1090.556 462.334 1090.842 460.175 1091.415 C 458.017 1091.988 456.168 1092.935 454.627 1094.256 C 453.086 1095.577 451.896 1097.36 451.061 1099.606 C 450.224 1101.851 449.805 1104.648 449.805 1107.994 L 449.805 1137.719 L 429.989 1137.719 Z " fill="rgb(0,0,0)"/>
    <path d=" M 1144.887 1137.719 C 1140.131 1137.719 1135.904 1136.949 1132.204 1135.408 C 1128.505 1133.866 1125.643 1131.334 1123.617 1127.811 C 1121.592 1124.288 1120.579 1119.488 1120.579 1113.411 L 1120.579 1087.65 L 1109.218 1087.65 L 1109.218 1071.137 L 1120.579 1071.137 L 1122.693 1052.376 L 1140.395 1052.376 L 1140.395 1071.137 L 1157.438 1071.137 L 1157.438 1087.65 L 1140.395 1087.65 L 1140.395 1113.675 C 1140.395 1116.318 1140.99 1118.188 1142.179 1119.289 C 1143.368 1120.39 1145.415 1120.941 1148.321 1120.941 L 1157.438 1120.941 L 1157.438 1137.719 L 1144.887 1137.719 Z " fill="rgb(0,0,0)"/>
    <path d=" M 1074.496 1139.304 C 1067.627 1139.304 1061.593 1137.873 1056.398 1135.011 C 1051.201 1132.149 1047.127 1128.14 1044.177 1122.989 C 1041.227 1117.837 1039.752 1111.914 1039.752 1105.22 C 1039.752 1098.35 1041.205 1092.23 1044.111 1086.857 C 1047.018 1081.484 1051.07 1077.257 1056.265 1074.174 C 1061.461 1071.092 1067.494 1069.55 1074.364 1069.55 C 1081.058 1069.55 1086.914 1071.004 1091.934 1073.91 C 1096.955 1076.816 1100.896 1080.758 1103.759 1085.734 C 1106.621 1090.711 1108.051 1096.458 1108.051 1102.974 C 1108.051 1103.855 1108.03 1104.846 1107.986 1105.947 C 1107.942 1107.048 1107.831 1108.171 1107.655 1109.316 L 1053.887 1109.316 L 1053.887 1097.822 L 1087.839 1097.822 C 1087.662 1094.123 1086.319 1091.151 1083.81 1088.904 C 1081.3 1086.659 1078.196 1085.536 1074.496 1085.536 C 1071.678 1085.536 1069.125 1086.197 1066.834 1087.518 C 1064.543 1088.839 1062.716 1090.82 1061.351 1093.463 C 1059.986 1096.105 1059.304 1099.451 1059.304 1103.503 L 1059.304 1107.467 C 1059.304 1110.549 1059.899 1113.279 1061.087 1115.657 C 1062.276 1118.035 1063.993 1119.884 1066.239 1121.205 C 1068.486 1122.526 1071.15 1123.187 1074.232 1123.187 C 1077.139 1123.187 1079.537 1122.592 1081.431 1121.404 C 1083.326 1120.215 1084.8 1118.696 1085.857 1116.845 L 1106.07 1116.845 C 1104.838 1121.073 1102.723 1124.883 1099.728 1128.273 C 1096.735 1131.663 1093.079 1134.35 1088.764 1136.332 C 1084.448 1138.314 1079.692 1139.304 1074.496 1139.304 Z " fill="rgb(0,0,0)"/>
    <path d=" M 1020.869 1137.719 L 993.392 1101.256 L 1017.832 1071.137 L 1041.215 1071.137 L 1008.319 1109.712 L 1008.319 1093.859 L 1045.442 1137.719 L 1020.869 1137.719 Z  M 976.482 1137.719 L 976.482 1042.601 L 996.298 1042.601 L 996.298 1137.719 L 976.482 1137.719 Z " fill="rgb(0,0,0)"/>
    <path d=" M 936.081 1139.304 C 929.211 1139.304 923.157 1137.806 917.916 1134.813 C 912.676 1131.818 908.58 1127.722 905.63 1122.526 C 902.68 1117.331 901.205 1111.386 901.205 1104.692 C 901.205 1097.822 902.68 1091.767 905.63 1086.527 C 908.58 1081.287 912.676 1077.147 917.916 1074.108 C 923.157 1071.07 929.211 1069.55 936.081 1069.55 C 944.8 1069.55 952.132 1071.841 958.077 1076.421 C 964.022 1081.001 967.788 1087.386 969.373 1095.577 L 948.367 1095.577 C 947.575 1092.758 946.078 1090.556 943.876 1088.971 C 941.674 1087.386 939.032 1086.593 935.949 1086.593 C 933.043 1086.593 930.51 1087.319 928.352 1088.773 C 926.196 1090.227 924.5 1092.296 923.266 1094.982 C 922.034 1097.668 921.417 1100.816 921.417 1104.428 C 921.417 1107.157 921.77 1109.623 922.475 1111.825 C 923.179 1114.027 924.169 1115.921 925.446 1117.506 C 926.724 1119.091 928.243 1120.303 930.004 1121.14 C 931.766 1121.975 933.748 1122.394 935.949 1122.394 C 938.062 1122.394 939.934 1122.042 941.563 1121.338 C 943.192 1120.634 944.602 1119.62 945.79 1118.299 C 946.98 1116.978 947.839 1115.349 948.367 1113.411 L 969.373 1113.411 C 967.788 1121.338 964 1127.634 958.011 1132.302 C 952.023 1136.969 944.711 1139.304 936.081 1139.304 Z " fill="rgb(0,0,0)"/>
    <path d=" M 862.127 1122.13 C 864.769 1122.13 867.126 1121.469 869.195 1120.148 C 871.264 1118.827 872.916 1116.845 874.148 1114.203 C 875.382 1111.561 875.999 1108.302 875.999 1104.428 C 875.999 1100.552 875.382 1097.293 874.148 1094.651 C 872.916 1092.009 871.286 1090.027 869.261 1088.706 C 867.235 1087.385 864.901 1086.724 862.259 1086.724 C 859.616 1086.724 857.26 1087.385 855.191 1088.706 C 853.122 1090.027 851.47 1092.009 850.237 1094.651 C 849.004 1097.293 848.387 1100.552 848.387 1104.428 C 848.387 1108.302 849.004 1111.561 850.237 1114.203 C 851.47 1116.845 853.122 1118.827 855.191 1120.148 C 857.26 1121.469 859.573 1122.13 862.127 1122.13 Z  M 862.127 1139.304 C 855.698 1139.304 849.928 1137.806 844.82 1134.813 C 839.713 1131.818 835.66 1127.7 832.667 1122.461 C 829.673 1117.22 828.176 1111.253 828.176 1104.559 C 828.176 1097.69 829.673 1091.635 832.667 1086.395 C 835.66 1081.154 839.734 1077.036 844.886 1074.043 C 850.039 1071.048 855.786 1069.55 862.127 1069.55 C 868.644 1069.55 874.457 1071.048 879.565 1074.043 C 884.673 1077.036 888.725 1081.154 891.719 1086.395 C 894.714 1091.635 896.211 1097.646 896.211 1104.428 C 896.211 1111.21 894.714 1117.22 891.719 1122.461 C 888.725 1127.7 884.673 1131.818 879.565 1134.813 C 874.457 1137.806 868.644 1139.304 862.127 1139.304 Z " fill="rgb(0,0,0)"/>
    <path d=" M 783.531 1137.719 L 783.531 1071.137 L 801.102 1071.137 L 802.951 1083.29 C 804.712 1080.472 806.781 1078.05 809.159 1076.024 C 811.538 1073.999 814.291 1072.413 817.417 1071.268 C 820.543 1070.123 823.911 1069.55 827.523 1069.55 L 827.523 1090.556 L 820.918 1090.556 C 818.276 1090.556 815.876 1090.842 813.718 1091.415 C 811.559 1091.988 809.71 1092.935 808.169 1094.256 C 806.628 1095.577 805.438 1097.36 804.603 1099.606 C 803.766 1101.851 803.347 1104.648 803.347 1107.994 L 803.347 1137.719 L 783.531 1137.719 Z " fill="rgb(0,0,0)"/>
    <path d=" M 743.654 1139.304 C 736.784 1139.304 730.75 1137.873 725.555 1135.011 C 720.358 1132.149 716.284 1128.14 713.334 1122.989 C 710.384 1117.837 708.909 1111.914 708.909 1105.22 C 708.909 1098.35 710.362 1092.23 713.269 1086.857 C 716.175 1081.484 720.227 1077.257 725.422 1074.174 C 730.618 1071.092 736.651 1069.55 743.521 1069.55 C 750.215 1069.55 756.071 1071.004 761.092 1073.91 C 766.112 1076.816 770.053 1080.758 772.916 1085.734 C 775.778 1090.711 777.209 1096.458 777.209 1102.974 C 777.209 1103.855 777.187 1104.846 777.143 1105.947 C 777.099 1107.048 776.988 1108.171 776.812 1109.316 L 723.044 1109.316 L 723.044 1097.822 L 756.996 1097.822 C 756.819 1094.123 755.476 1091.151 752.967 1088.904 C 750.457 1086.659 747.353 1085.536 743.654 1085.536 C 740.835 1085.536 738.282 1086.197 735.991 1087.518 C 733.7 1088.839 731.873 1090.82 730.508 1093.463 C 729.143 1096.105 728.461 1099.451 728.461 1103.503 L 728.461 1107.467 C 728.461 1110.549 729.056 1113.279 730.244 1115.657 C 731.433 1118.035 733.15 1119.884 735.396 1121.205 C 737.643 1122.526 740.307 1123.187 743.39 1123.187 C 746.296 1123.187 748.694 1122.592 750.589 1121.404 C 752.483 1120.215 753.957 1118.696 755.014 1116.845 L 775.227 1116.845 C 773.995 1121.073 771.88 1124.883 768.885 1128.273 C 765.892 1131.663 762.236 1134.35 757.921 1136.332 C 753.605 1138.314 748.849 1139.304 743.654 1139.304 Z " fill="rgb(0,0,0)"/>
    <path d=" M 667.185 1121.998 C 670.357 1121.998 673.197 1121.249 675.707 1119.752 C 678.216 1118.254 680.176 1116.207 681.584 1113.61 C 682.994 1111.011 683.699 1107.994 683.699 1104.559 C 683.699 1101.125 682.994 1098.064 681.584 1095.378 C 680.176 1092.691 678.216 1090.6 675.707 1089.103 C 673.197 1087.605 670.357 1086.857 667.185 1086.857 C 663.926 1086.857 661.042 1087.628 658.532 1089.17 C 656.023 1090.711 654.063 1092.78 652.653 1095.378 C 651.243 1097.976 650.539 1101.036 650.539 1104.559 C 650.539 1107.906 651.243 1110.922 652.653 1113.61 C 654.063 1116.296 656.023 1118.365 658.532 1119.819 C 661.042 1121.272 663.926 1121.998 667.185 1121.998 Z  M 672.073 1139.304 C 668.814 1139.304 665.886 1138.907 663.288 1138.115 C 660.69 1137.322 658.4 1136.199 656.418 1134.747 C 654.437 1133.293 652.742 1131.643 651.332 1129.792 L 649.087 1137.719 L 631.516 1137.719 L 631.516 1042.601 L 651.332 1042.601 L 651.332 1079.855 C 653.445 1076.861 656.176 1074.396 659.523 1072.458 C 662.869 1070.52 667.009 1069.55 671.942 1069.55 C 678.018 1069.55 683.457 1071.07 688.257 1074.108 C 693.056 1077.147 696.866 1081.287 699.684 1086.527 C 702.503 1091.767 703.912 1097.777 703.912 1104.559 C 703.912 1111.164 702.503 1117.109 699.684 1122.394 C 696.866 1127.678 693.078 1131.818 688.322 1134.813 C 683.567 1137.806 678.15 1139.304 672.073 1139.304 Z " fill="rgb(0,0,0)"/>
    <path d=" M 587.811 1121.998 C 590.982 1121.998 593.823 1121.249 596.332 1119.752 C 598.842 1118.254 600.801 1116.207 602.21 1113.61 C 603.62 1111.011 604.324 1107.994 604.324 1104.559 C 604.324 1101.125 603.62 1098.064 602.21 1095.378 C 600.801 1092.691 598.842 1090.6 596.332 1089.103 C 593.823 1087.605 590.982 1086.857 587.811 1086.857 C 584.552 1086.857 581.667 1087.628 579.158 1089.17 C 576.648 1090.711 574.689 1092.78 573.279 1095.378 C 571.869 1097.976 571.164 1101.036 571.164 1104.559 C 571.164 1107.906 571.869 1110.922 573.279 1113.61 C 574.689 1116.296 576.648 1118.365 579.158 1119.819 C 581.667 1121.272 584.552 1121.998 587.811 1121.998 Z  M 592.698 1139.304 C 589.439 1139.304 586.511 1138.907 583.913 1138.115 C 581.316 1137.322 579.025 1136.199 577.044 1134.747 C 575.062 1133.293 573.368 1131.643 571.958 1129.792 L 569.712 1137.719 L 552.141 1137.719 L 552.141 1042.601 L 571.958 1042.601 L 571.958 1079.855 C 574.071 1076.861 576.802 1074.396 580.148 1072.458 C 583.495 1070.52 587.634 1069.55 592.567 1069.55 C 598.643 1069.55 604.082 1071.07 608.882 1074.108 C 613.681 1077.147 617.491 1081.287 620.31 1086.527 C 623.128 1091.767 624.537 1097.777 624.537 1104.559 C 624.537 1111.164 623.128 1117.109 620.31 1122.394 C 617.491 1127.678 613.703 1131.818 608.948 1134.813 C 604.193 1137.806 598.776 1139.304 592.698 1139.304 Z " fill="rgb(0,0,0)"/>
    <path d=" M 502.35 1139.304 C 496.802 1139.304 492.111 1138.159 488.281 1135.87 C 484.45 1133.579 481.543 1130.211 479.561 1125.763 C 477.579 1121.315 476.589 1115.877 476.589 1109.448 L 476.589 1071.137 L 496.405 1071.137 L 496.405 1107.467 C 496.405 1112.398 497.417 1116.163 499.443 1118.761 C 501.468 1121.36 504.727 1122.659 509.22 1122.659 C 511.949 1122.659 514.393 1122.042 516.551 1120.809 C 518.709 1119.576 520.383 1117.771 521.572 1115.393 C 522.76 1113.015 523.355 1110.107 523.355 1106.673 L 523.355 1071.137 L 543.171 1071.137 L 543.171 1137.719 L 525.865 1137.719 L 524.28 1127.15 C 522.342 1130.762 519.524 1133.69 515.825 1135.936 C 512.126 1138.181 507.635 1139.304 502.35 1139.304 Z " fill="rgb(0,0,0)"/>
  </g>
</svg>